<?xml version="1.0" encoding="utf-8"?><svg xmlns="http://www.w3.org/2000/svg" xmlns:xlink="http://www.w3.org/1999/xlink"><symbol fill="none" viewBox="0 0 42 49" id="11" xmlns="http://www.w3.org/2000/svg"><rect x="1" y="1" width="40" height="47" rx="4" stroke="#1D6ECB" stroke-width="2"/><path d="M25.25 31.5l-8.66-7 8.66-7v14z" stroke="#1D6ECB" stroke-width="2"/><path fill="#fff" d="M27 42h-3V8h3z"/></symbol><symbol fill="none" viewBox="0 0 42 49" id="12" xmlns="http://www.w3.org/2000/svg"><rect x="41" y="48" width="40" height="47" rx="4" transform="rotate(-180 41 48)" stroke="#1D6ECB" stroke-width="2"/><path d="M16.75 17.5l8.66 7-8.66 7v-14z" stroke="#1D6ECB" stroke-width="2"/><path fill="#fff" d="M15 7h3v34h-3z"/></symbol><symbol fill="none" viewBox="0 0 70 70" id="btn-next" xmlns="http://www.w3.org/2000/svg"><rect width="70" height="70" rx="5" fill="#FFD600"/><path d="M45.06 36.06a1.5 1.5 0 000-2.12l-9.545-9.547a1.5 1.5 0 10-2.122 2.122L41.88 35l-8.486 8.485a1.5 1.5 0 102.122 2.122l9.546-9.546zM21 36.5h23v-3H21v3z" fill="#272727"/></symbol><symbol fill="none" viewBox="0 0 42 70" id="btn-prev" xmlns="http://www.w3.org/2000/svg"><rect width="42" height="70" rx="5" fill="#FFD600"/><path d="M12.94 33.94a1.5 1.5 0 000 2.12l9.545 9.547a1.5 1.5 0 102.122-2.122L16.12 35l8.486-8.485a1.5 1.5 0 10-2.122-2.122L12.94 33.94zM17 33.5h-3v3h3v-3z" fill="#272727"/></symbol><symbol viewBox="0 0 29 29" id="clock" xmlns="http://www.w3.org/2000/svg"><path d="M8.1 1.7c-9.6 5-10.6 18.2-2 24.6 3.8 2.8 10.6 3.2 14.8 1 9.6-5 10.6-18.2 2-24.6-3.8-2.8-10.6-3.2-14.8-1zm12 1.8c6.3 3.3 8.6 11.2 4.9 17.2-3.5 5.8-10.2 7.8-16.1 4.8C2.8 22.3.4 14.9 3.5 8.9 6.7 2.8 14.1.4 20.1 3.5z"/><path d="M13.7 5.6c-.4.4-.7 2.2-.7 4 0 3-.3 3.3-3.5 3.6-5.3.5-4.2 2.3 1.3 2.3h4.7l.3-4.4c.3-4.2-.7-6.9-2.1-5.5z"/></symbol><symbol viewBox="0 0 20 20" id="instagram" xmlns="http://www.w3.org/2000/svg"><path d="M5.87.123C4.242.196 2.83.594 1.69 1.729.548 2.869.155 4.286.081 5.897.037 6.902-.231 14.498.545 16.49a5.04 5.04 0 002.91 2.903c.634.246 1.356.412 2.416.461 8.86.401 12.145.183 13.53-3.364.246-.631.415-1.353.462-2.41.405-8.883-.066-10.809-1.61-12.351C17.027.507 15.586-.325 5.87.123m.081 17.944c-.97-.043-1.496-.205-1.848-.341a3.255 3.255 0 01-1.888-1.883c-.591-1.514-.395-8.703-.342-9.866.051-1.14.282-2.18 1.086-2.985C3.954 2 5.24 1.513 13.993 1.908c1.142.052 2.186.282 2.992 1.084.995.993 1.489 2.288 1.087 11.008-.044.968-.206 1.493-.342 1.843-.901 2.308-2.973 2.628-11.779 2.224M14.09 4.69c0 .657.534 1.19 1.194 1.19.66 0 1.195-.533 1.195-1.19a1.194 1.194 0 00-2.39 0M4.864 9.988a5.103 5.103 0 005.11 5.097 5.103 5.103 0 005.109-5.097 5.102 5.102 0 00-5.11-5.096 5.102 5.102 0 00-5.11 5.096m1.794 0A3.313 3.313 0 019.972 6.68a3.313 3.313 0 013.317 3.308 3.313 3.313 0 01-3.317 3.31 3.313 3.313 0 01-3.316-3.31" fill="#fff" fill-rule="evenodd"/></symbol><symbol viewBox="0 0 29 29" id="phone" xmlns="http://www.w3.org/2000/svg"><path d="M2.5 2.6C-.8 6.1-.6 9.4 3 15.7 7 22.7 15.7 29 21.3 29c3 0 7.7-4.2 7.7-6.9 0-2.5-6.3-4-9.2-2.2-1.5 1-2.4.8-4.8-.9-1.6-1.1-3.9-3.4-5-5-1.7-2.4-1.9-3.3-.9-4.8.7-1.2.9-3.3.5-5.5-.9-4.6-3.5-4.9-7.1-1.1zM8 4.5c0 1.4-.5 3.4-1.2 4.4-1 1.6-.7 2.6 1.6 6 3.9 5.5 9.2 8.8 11.7 7.3 2.4-1.5 6.9-1.5 6.9 0 0 2.1-3.2 4.8-5.7 4.8-5.4 0-13.9-6.5-17.4-13.2-2.3-4.6-2.4-7.6-.2-10C6 1.2 8 1.5 8 4.5zM14 .9c0 .6 1.2 1.1 2.6 1.1 1.7 0 4 1.4 6.5 3.9s3.9 4.8 3.9 6.5c0 1.4.5 2.6 1.1 2.6.8 0 .9-1.1.5-3.2C27.4 5.7 23.3 1.6 17.2.4 15.1 0 14 .1 14 .9z"/><path d="M16.2 5.3C20 7 23 10 23 12.1c0 1 .5 2.1 1 2.4.6.4 1-.5 1-2 0-3.7-5-8.5-8.7-8.4l-2.8.1 2.7 1.1z"/><path d="M14 7.7c0 .5 1 1.3 2.3 1.8 1.2.6 2.6 2 3.2 3.2.5 1.3 1.3 2.3 1.8 2.3 1.1 0-.2-4.1-1.7-5.6S14 6.6 14 7.7z"/></symbol><symbol id="twitter" viewBox="0 0 32 32" xml:space="preserve" xmlns="http://www.w3.org/2000/svg"><style>.hst0{fill:none;stroke:#000;stroke-width:2;stroke-linecap:round;stroke-linejoin:round;stroke-miterlimit:10}</style><path class="hst0" d="M30 5c-1.1.7-2.2 1.3-3.6 1.6C25.2 5 23.2 4 21 4c-3.9 0-7 3.1-7 7 0 .4 0 .8.1 1.2-4.4-.7-8.3-3-11-6.4-.5.9-.8 2-.8 3.2 0 2.2 1.1 4.1 2.7 5.2-1 0-2-.3-2.8-.8v.1c0 3.1 2.1 5.6 4.9 6.2-.5.1-1.1.2-1.6.2-.4 0-.8 0-1.2-.1.8 2.5 3 4.3 5.7 4.4-2.1 1.7-4.8 2.7-7.6 2.7-.5 0-1 0-1.5-.1 2.7 1.8 5.9 2.8 9.4 2.8 11.2 0 17.4-9.5 17.5-17.8L31 10l-3-1 2-4z"/></symbol><symbol viewBox="0 0 24 24" id="vk" xmlns="http://www.w3.org/2000/svg"><path d="M15.073 2H8.937C3.333 2 2 3.333 2 8.927v6.136C2 20.666 3.323 22 8.927 22h6.136C20.666 22 22 20.677 22 15.073V8.937C22 3.333 20.677 2 15.073 2zm3.073 14.27h-1.459c-.552 0-.718-.447-1.708-1.437-.864-.833-1.229-.937-1.448-.937-.302 0-.385.083-.385.5v1.312c0 .355-.115.563-1.042.563a5.692 5.692 0 01-4.448-2.667 11.626 11.626 0 01-2.302-4.833c0-.219.083-.417.5-.417h1.458c.375 0 .51.167.657.552.708 2.084 1.916 3.896 2.406 3.896.188 0 .27-.083.27-.552v-2.146c-.062-.979-.582-1.062-.582-1.416a.36.36 0 01.374-.334h2.292c.313 0 .417.156.417.531v2.896c0 .313.135.417.229.417.188 0 .333-.104.677-.448a11.999 11.999 0 001.792-2.98.628.628 0 01.635-.416h1.459c.437 0 .53.219.437.531a18.205 18.205 0 01-1.958 3.365c-.157.24-.22.365 0 .646.145.219.656.646 1 1.052a6.486 6.486 0 011.229 1.708c.125.406-.084.615-.5.615z"/></symbol></svg>